<svg width="24" height="24" viewBox="0 0 24 24" fill="none" xmlns="http://www.w3.org/2000/svg">
<mask id="mask0_536_2112" style="mask-type:luminance" maskUnits="userSpaceOnUse" x="0" y="6" width="21" height="18">
<path d="M6.90023 20.6487C2.02171 18.1251 0.149759 12.4378 1.80451 7.32781C1.91025 7.00201 1.74735 6.65048 1.43012 6.51901L1.33581 6.479L1.18148 6.80481C1.01 7.16491 0.852814 7.53359 0.71849 7.91084C-1.53643 14.1497 1.69305 21.0317 7.93195 23.2866C7.9691 23.3009 8.00625 23.3123 8.04627 23.3266C10.8356 23.8525 13.5478 23.7439 15.6341 22.6721C17.7776 21.569 19.2809 19.4541 20.6841 16.6676C20.2297 17.5135 19.6524 18.2852 18.9722 18.9654C15.7856 22.1491 10.8471 22.6921 6.90023 20.6487Z" fill="white"/>
</mask>
<g mask="url(#mask0_536_2112)">
<path d="M22.0131 6.14111H-0.278931V24.472H22.0131V6.14111Z" fill="url(#paint0_linear_536_2112)"/>
<path opacity="0.1" d="M12.0074 22.9687C18.2863 22.9687 23.3763 17.9298 23.3763 11.7141C23.3763 5.49833 18.2863 0.459473 12.0074 0.459473C5.72852 0.459473 0.638489 5.49833 0.638489 11.7141C0.638489 17.9298 5.72852 22.9687 12.0074 22.9687Z" fill="black"/>
</g>
<mask id="mask1_536_2112" style="mask-type:luminance" maskUnits="userSpaceOnUse" x="2" y="0" width="17" height="20">
<path d="M5.19416 16.5938C8.43507 19.9118 13.8823 20.8521 17.369 17.3626C19.0895 13.21 18.2864 10.6807 15.8 9.35744C16.8975 10.8236 17.0546 12.7927 16.203 14.4132C14.4025 17.8598 9.2353 17.6684 6.72602 15.1019C5.50282 13.8501 4.73689 12.2183 4.55684 10.4749C3.79377 6.11939 5.51425 2.70986 9.67828 0.254883C6.43451 0.986517 4.02812 3.26144 2.84207 6.62239C1.7189 10.1234 2.62487 13.9616 5.19416 16.5938Z" fill="white"/>
</mask>
<g mask="url(#mask1_536_2112)">
<path d="M19.2608 -0.411133H1.96454V21.3407H19.2608V-0.411133Z" fill="url(#paint1_linear_536_2112)"/>
<path opacity="0.1" d="M19.1608 9.46795C19.1608 15.0552 15.7399 18.2018 11.8159 18.2018C6.92024 18.2018 3.2735 14.255 3.2735 9.145C3.2735 4.03499 7.24319 -0.114746 12.1389 -0.114746C17.0345 -0.114746 19.1608 4.35794 19.1608 9.46795Z" fill="black"/>
</g>
<mask id="mask2_536_2112" style="mask-type:luminance" maskUnits="userSpaceOnUse" x="7" y="4" width="13" height="14">
<path d="M10.4527 7.85134C12.4304 7.2083 14.4967 7.61984 15.797 9.35747C17.0545 10.3177 17.7319 11.701 17.8376 13.5158C17.9005 14.6361 17.7433 15.9165 17.3661 17.3626C20.3297 14.3989 20.3297 9.59183 17.3661 6.62528C14.4395 3.69874 11.0757 3.92452 7.61474 5.71645L7.40039 5.82791L7.58044 11.3552C7.85195 10.5435 8.47498 10.4835 8.93797 9.9062C9.42382 9.30317 9.7582 8.20001 10.4527 7.85134Z" fill="white"/>
</mask>
<g mask="url(#mask2_536_2112)">
<path d="M20.0153 3.46484H6.98022V17.6117H20.0153V3.46484Z" fill="url(#paint2_linear_536_2112)"/>
<path opacity="0.1" d="M1.50726 -0.179199V24.6735H23.0476V-0.179199H1.50726ZM11.6958 20.0379C7.73759 20.0379 5.2426 18.6833 5.2426 14.725C5.2426 10.7239 8.20629 5.98254 12.1645 5.98254C15.4255 5.98254 18.8579 8.91765 18.8579 12.873C18.8607 16.8313 15.6541 20.0379 11.6958 20.0379Z" fill="black" stroke="black" stroke-width="0.0207117" stroke-miterlimit="10"/>
</g>
<mask id="mask3_536_2112" style="mask-type:luminance" maskUnits="userSpaceOnUse" x="4" y="0" width="21" height="24">
<path d="M11.9988 2.13774C17.4432 2.13489 21.8558 6.5447 21.8615 11.9862C21.8615 13.621 21.4557 15.23 20.6812 16.6675C17.909 22.1662 13.6964 24.3869 8.04051 23.3266C14.2994 25.51 21.1413 22.2091 23.3277 15.9531C25.5111 9.69416 22.2102 2.85223 15.9542 0.665902C14.8081 0.265789 13.6049 0.0400114 12.3903 0.00285812C12.2588 1.74393e-07 12.1274 0 11.9988 0C11.2185 0 10.4412 0.0857387 9.68097 0.254358C5.1797 2.72362 3.47065 6.1303 4.55667 10.4744C4.208 7.17059 5.99136 4.0097 9.00078 2.60359L9.4409 2.47498C10.2754 2.2492 11.1357 2.13774 11.9988 2.13774Z" fill="white"/>
</mask>
<g mask="url(#mask3_536_2112)">
<path d="M24.4996 -0.339844H3.73663V24.3328H24.4996V-0.339844Z" fill="url(#paint3_linear_536_2112)"/>
<path opacity="0.1" fill-rule="evenodd" clip-rule="evenodd" d="M-1.00482 -5.03516V27.4254H25.7027V-5.03516H-1.00482ZM12.2589 23.6301C6.35154 23.6301 1.56161 18.5401 1.56161 12.264C1.56161 5.98795 6.35154 0.9008 12.2589 0.9008C18.1663 0.9008 22.9562 5.9908 22.9562 12.264C22.9562 18.5372 18.1663 23.6301 12.2589 23.6301Z" fill="black" stroke="black" stroke-width="0.0207117" stroke-miterlimit="10"/>
</g>
<mask id="mask4_536_2112" style="mask-type:luminance" maskUnits="userSpaceOnUse" x="7" y="7" width="4" height="10">
<path d="M10.5842 16.1759L10.4528 7.85352C9.80972 8.17075 9.23813 8.61945 8.77514 9.16531C8.26928 9.76262 7.87203 10.4943 7.58337 11.3545L7.69198 14.7012L7.80344 14.8069C8.70941 15.6843 9.68111 15.9815 10.5842 16.1759Z" fill="white"/>
</mask>
<g mask="url(#mask4_536_2112)">
<path d="M10.7269 7.74805H7.44312V16.2762H10.7269V7.74805Z" fill="url(#paint4_linear_536_2112)"/>
<path opacity="0.1" d="M11.3342 6.42074L8.96875 6.4917L9.27024 16.5419L11.6357 16.471L11.3342 6.42074Z" fill="black"/>
</g>
<defs>
<linearGradient id="paint0_linear_536_2112" x1="4.63893" y1="4.80379" x2="17.3163" y2="26.1778" gradientUnits="userSpaceOnUse">
<stop offset="0.14" stop-color="#FFCD02"/>
<stop offset="0.37" stop-color="#FF963B"/>
<stop offset="0.7" stop-color="#FF6373"/>
<stop offset="1" stop-color="#FF4295"/>
</linearGradient>
<linearGradient id="paint1_linear_536_2112" x1="0.849151" y1="0.70182" x2="20.3734" y2="20.226" gradientUnits="userSpaceOnUse">
<stop stop-color="#1B59D2"/>
<stop offset="0.51" stop-color="#4E9BF2"/>
<stop offset="0.98" stop-color="#1B59D2"/>
</linearGradient>
<linearGradient id="paint2_linear_536_2112" x1="5.54578" y1="5.94661" x2="21.448" y2="15.1281" gradientUnits="userSpaceOnUse">
<stop stop-color="#50AFF3"/>
<stop offset="0.33" stop-color="#4064C5"/>
<stop offset="1" stop-color="#6C349F"/>
</linearGradient>
<linearGradient id="paint3_linear_536_2112" x1="8.93884" y1="-2.23394" x2="19.2978" y2="26.2271" gradientUnits="userSpaceOnUse">
<stop stop-color="#A700BA"/>
<stop offset="0.49" stop-color="#C00C95"/>
<stop offset="0.86" stop-color="#DB1B62"/>
</linearGradient>
<linearGradient id="paint4_linear_536_2112" x1="9.08456" y1="7.74937" x2="9.08456" y2="16.2779" gradientUnits="userSpaceOnUse">
<stop stop-color="#1C58D2"/>
<stop offset="0.33" stop-color="#5734CA"/>
<stop offset="1" stop-color="#A203BC"/>
</linearGradient>
</defs>
</svg>
