<?xml version="1.0" encoding="UTF-8" standalone="no"?>
<svg
   width="86.50621"
   height="81.130013"
   viewBox="0 0 86.50621 81.130013"
   fill="none"
   version="1.1"
   id="svg1"
   sodipodi:docname="logo.svg"
   xml:space="preserve"
   inkscape:version="1.3 (1:1.3+202307231459+0e150ed6c4)"
   inkscape:export-filename="header-logo.svg"
   inkscape:export-xdpi="96"
   inkscape:export-ydpi="96"
   xmlns:inkscape="http://www.inkscape.org/namespaces/inkscape"
   xmlns:sodipodi="http://sodipodi.sourceforge.net/DTD/sodipodi-0.dtd"
   xmlns="http://www.w3.org/2000/svg"
   xmlns:svg="http://www.w3.org/2000/svg"><defs
     id="defs1" /><sodipodi:namedview
     id="namedview1"
     pagecolor="#505050"
     bordercolor="#eeeeee"
     borderopacity="1"
     inkscape:showpageshadow="0"
     inkscape:pageopacity="0"
     inkscape:pagecheckerboard="0"
     inkscape:deskcolor="#d1d1d1"
     inkscape:zoom="4.4967994"
     inkscape:cx="9.117596"
     inkscape:cy="20.681376"
     inkscape:window-width="1314"
     inkscape:window-height="704"
     inkscape:window-x="0"
     inkscape:window-y="0"
     inkscape:window-maximized="1"
     inkscape:current-layer="svg1" /><g
     style="fill:none"
     id="g1"
     transform="translate(-0.8912334,35.24106)"
     inkscape:export-filename="logo.svg"
     inkscape:export-xdpi="96"
     inkscape:export-ydpi="96"><path
       d="M 5.37311,8.99829 C 4.52186,8.58382 3.92771,8.49679 3.59064,8.73718 3.25357,8.97757 3.08504,9.66575 3.08504,10.8017 v 5.5576 L 0.891233,15.0869 V 4.18963 L 2.94792,5.38251 V 6.64065 C 3.27928,6.34411 3.64206,6.19788 4.03626,6.20197 4.43046,6.19945 4.87607,6.34233 5.37311,6.63061 Z M 13.1628,15.5472 C 12.9743,14.7114 12.6572,13.976 12.2116,13.3411 11.7717,12.7029 11.2147,12.1883 10.5405,11.7973 9.95781,11.4593 9.43507,11.3608 8.97232,11.5019 8.50956,11.643 8.1982,12.0007 8.03824,12.5749 Z m -5.20169,-1.006 c 0.07427,0.829 0.34278,1.6056 0.80554,2.3297 0.46847,0.7208 1.07119,1.2949 1.80815,1.7224 0.4913,0.285 0.9312,0.4212 1.3197,0.4088 0.3942,-0.0091 0.7056,-0.1621 0.9341,-0.4588 l 2.3652,1.3718 c -0.3999,0.9568 -0.9998,1.5335 -1.7996,1.7301 -0.7941,0.1932 -1.7139,-0.0133 -2.7594,-0.6197 C 9.93211,20.6179 9.28368,20.0998 8.68952,19.4712 8.10108,18.8393 7.57262,18.1069 7.10415,17.2738 6.65854,16.4804 6.3129,15.6624 6.06724,14.8198 5.82158,13.9707 5.69875,13.1762 5.69875,12.4365 c 0,-0.7595 0.1114,-1.4081 0.33421,-1.9459 C 6.26148,9.94944 6.59569,9.53898 7.0356,9.25917 7.51549,8.94971 8.05823,8.8121 8.66381,8.84632 c 0.60558,0.03423 1.23116,0.23855 1.87669,0.61299 0.817,0.47384 1.5797,1.13079 2.2881,1.97099 0.7084,0.8402 1.3112,1.7941 1.8082,2.8617 0.3028,0.6445 0.5256,1.2988 0.6684,1.9628 0.1486,0.6674 0.2228,1.3775 0.2228,2.1304 0,0.0594 -0.0028,0.1502 -0.0085,0.2724 -0.0058,0.1156 -0.0086,0.2031 -0.0086,0.2625 z m 11.08899,0.1806 v 1.2383 c 0.3199,-0.3098 0.6856,-0.4643 1.0969,-0.4634 0.4171,0.0041 0.8912,0.1602 1.4225,0.4684 0.6799,0.3943 1.2712,0.8859 1.7739,1.4747 0.5085,0.5921 0.9313,1.2831 1.2683,2.073 0.2171,0.5221 0.3714,1.064 0.4628,1.6256 0.0971,0.5582 0.1457,1.3228 0.1457,2.2936 v 5.7657 l -2.1938,-1.2724 v -4.8245 c 0,-1.4596 -0.1457,-2.5447 -0.4371,-3.2552 -0.2913,-0.7106 -0.7941,-1.273 -1.5082,-1.6871 -0.7313,-0.4242 -1.2569,-0.4285 -1.5768,-0.0131 -0.3199,0.4089 -0.4799,1.3398 -0.4799,2.7927 v 4.6661 L 16.9077,24.3765 V 13.4792 Z m 8.7581,15.977 v -8.6386 l -1.4397,-0.835 v -2.2588 l 1.4397,0.8351 v -3.5268 l 2.1938,1.2724 v 3.5268 l 1.4482,0.8399 v 2.2588 l -1.4482,-0.84 v 8.6386 z"
       fill="#000000"
       id="path1-5"
       style="fill:#0077b6;fill-opacity:1" /></g><g
     style="fill:none"
     id="g2"
     transform="translate(3.5462056,0.01001023)"><path
       d="m 82.96,19.59 v 30.37 c -10e-4,0.1589 -0.0465,0.3143 -0.1313,0.4486 C 82.7438,50.543 82.623,50.6508 82.48,50.72 l -22.56,13 -30,17.34 h -0.06 c -0.1022,0.0391 -0.2106,0.0594 -0.32,0.06 -0.2201,0 -0.4312,-0.0875 -0.5869,-0.2431 C 28.7974,80.7212 28.71,80.5101 28.71,80.29 V 45.72 L 0.789981,29.59 C 0.637468,29.5248 0.507662,29.416 0.416904,29.2772 0.326145,29.1384 0.278517,28.9758 0.280002,28.81 0.283917,28.6492 0.330386,28.4922 0.414707,28.3552 0.499027,28.2182 0.618165,28.106 0.759982,28.03 L 28.64,11.96 49.24,0.0500031 c 0.1022,-0.039074 0.2106,-0.05941203 0.32,-0.0600129 0.1062,4.6322e-4 0.2113,0.0208271 0.31,0.0600129 L 59.78,5.76999 82.34,18.77 c 0.1787,0.0502 0.336,0.1576 0.448,0.3057 0.1119,0.148 0.1724,0.3287 0.172,0.5143 z"
       fill="#000000"
       id="path1-2"
       style="fill:#0077b6;fill-opacity:1" /></g><path
     d="m 40.395094,53.946285 v 1.2384 c 0.31993,-0.6809 0.68556,-1.2595 1.0969,-1.7359 0.41705,-0.4796 0.89123,-0.8735 1.42254,-1.1817 0.75984,-0.4407 1.40827,-0.6616 1.94529,-0.6626 0.54274,-0.0044 1.00835,0.2109 1.39684,0.6461 0.37135,-0.8626 0.7884,-1.5867 1.25115,-2.1721 0.46276,-0.5854 0.97412,-1.0404 1.53392,-1.3652 1.154099,-0.6693 2.039599,-0.7635 2.656599,-0.2826 0.617,0.4809 0.9255,1.5039 0.9255,3.0692 v 6.2511 l -2.1595,1.2525 v -4.8245 c 0,-1.4794 -0.1429,-2.4005 -0.4285,-2.7631 -0.2799,-0.3726 -0.768399,-0.3568 -1.465399,0.0474 -0.72555,0.4209 -1.24544,1.0229 -1.55965,1.8062 -0.30851,0.7733 -0.46276,1.8864 -0.46276,3.3394 v 4.666 l -2.17666,1.2625 v -4.8245 c 0,-1.4728 -0.14568,-2.3922 -0.43705,-2.7582 -0.28565,-0.3692 -0.7884,-0.3451 -1.50824,0.0724 -0.73127,0.4241 -1.25687,1.0295 -1.5768,1.816 -0.31993,0.78 -0.47989,1.8965 -0.47989,3.3494 v 4.666 l -2.116679,1.2277 v -10.8973 z m 15.819339,-3.8157 c 0,0.918 0.2628,1.535 0.7884,1.851 0.5314,0.306 1.1769,0.2387 1.9368,-0.202 0.6912,-0.401 1.2997,-1.0643 1.8253,-1.9899 0.5256,-0.9257 0.7884,-1.8046 0.7884,-2.6368 0,-0.8849 -0.2657,-1.4904 -0.797,-1.8162 -0.5256,-0.3358 -1.1426,-0.2983 -1.851,0.1126 -0.7427,0.4308 -1.3769,1.1024 -1.9025,2.0148 -0.5256,0.9059 -0.7884,1.7947 -0.7884,2.6665 z m 5.5874,2.2971 v -1.3374 c -0.2628,0.694 -0.6342,1.309 -1.1141,1.8449 -0.4741,0.5326 -1.0826,1.0143 -1.8253,1.445 -1.3939,0.8085 -2.5594,0.9363 -3.4963,0.3834 -0.9313,-0.5628 -1.3969,-1.6599 -1.3969,-3.2912 0,-0.7661 0.1171,-1.5605 0.3514,-2.3832 0.2342,-0.8227 0.5684,-1.6209 1.0026,-2.3944 0.4685,-0.8463 0.9884,-1.5706 1.5597,-2.1727 0.5713,-0.6087 1.214,-1.1202 1.9281,-1.5344 0.6856,-0.3976 1.274,-0.6068 1.7653,-0.6276 0.4971,-0.0241 0.897,0.1435 1.1998,0.5028 v -1.3176 l 2.1424,-1.2425 v 10.8973 z m 5.4845,-6.7969 v 0.1486 c 0,0.4821 0.1057,0.8138 0.3171,0.995 0.2114,0.1746 0.4856,0.1641 0.822601,-0.0314 0.32,-0.1855 0.5799,-0.4486 0.7799,-0.7891 0.2056,-0.3438 0.3085,-0.6908 0.3085,-1.0408 0,-0.3236 -0.0743,-0.5447 -0.2228,-0.6633 -0.1486,-0.1252 -0.4142,-0.1825 -0.797,-0.1718 -0.2171,0.0136 -0.537001,0.044 -0.959801,0.0911 -0.4228,0.047 -0.6941,0.0492 -0.8141,0.0065 -0.3485,-0.128 -0.6056,-0.3455 -0.7713,-0.6523 -0.1656,-0.3133 -0.2485,-0.7309 -0.2485,-1.2527 0,-0.918 0.2771,-1.8547 0.8313,-2.8101 0.5599,-0.95879 1.2368,-1.66846 2.031001,-2.12905 0.8398,-0.48709 1.5025,-0.59077 1.9881,-0.31105 0.4913,0.27641 0.7598,0.9066 0.8055,1.8906 l -1.971,1.1431 v -0.0594 c 0,-0.35 -0.0799,-0.5777 -0.2399,-0.6831 -0.1543,-0.1086 -0.3714,-0.0818 -0.6513,0.0806 -0.245701,0.1425 -0.451301,0.3608 -0.617001,0.655 -0.16,0.2843 -0.24,0.5718 -0.24,0.8624 0,0.4755 0.4228,0.6728 1.268301,0.5919 0.2228,-0.0236 0.3942,-0.0404 0.5142,-0.0506 0.8113,-0.0478 1.3654,0.0865 1.6625,0.4029 0.2971,0.3098 0.4456,0.8775 0.4456,1.703 0,1.0171 -0.2971,2.0315 -0.8912,3.0431 -0.5942,1.0051 -1.3426,1.7694 -2.2452,2.2929 -0.908401,0.5269 -1.642501,0.6026 -2.202401,0.2273 -0.5542,-0.3786 -0.857,-1.1508 -0.9084,-2.3163 z m 12.622901,-10.36265 c -0.1885,-0.61714 -0.5056,-0.9847 -0.9512,-1.1027 -0.4399,-0.12791 -0.9969,0.0036 -1.671,0.39463 -0.5828,0.33799 -1.1055,0.84591 -1.5683,1.52379 -0.4627,0.67787 -0.7741,1.39672 -0.9341,2.15655 z m -5.2017,5.02805 c 0.0743,0.7428 0.3428,1.2079 0.8056,1.3952 0.4684,0.1774 1.0712,0.0524 1.8081,-0.3751 0.4914,-0.2849 0.9313,-0.6589 1.3197,-1.122 0.3942,-0.4664 0.7056,-0.9805 0.9341,-1.5424 l 2.3652,-1.37178 c -0.3999,1.42078 -0.9998,2.69328 -1.7996,3.81758 -0.7941,1.1145 -1.7139,1.9749 -2.7594,2.5813 -0.7027,0.4075 -1.3511,0.6416 -1.9453,0.7022 -0.5884,0.0507 -1.1169,-0.0687 -1.5853,-0.3584 -0.4456,-0.2765 -0.7913,-0.6936 -1.0369,-1.2511 -0.2457,-0.5642 -0.3685,-1.2162 -0.3685,-1.9559 0,-0.7595 0.1114,-1.5374 0.3342,-2.33364 0.2285,-0.8062 0.5627,-1.60434 1.0026,-2.39445 0.4799,-0.86613 1.0226,-1.63332 1.6282,-2.30157 0.6056,-0.66825 1.2312,-1.18959 1.8768,-1.56402 0.8169,-0.473839 1.5796,-0.701559 2.288,-0.683149 0.7084,0.01841 1.3112,0.27313 1.8082,0.764169 0.3028,0.2933 0.5256,0.68912 0.6684,1.18747 0.1486,0.49504 0.2228,1.11901 0.2228,1.87191 0,0.05944 -0.0028,0.15356 -0.0085,0.28236 -0.0057,0.12219 -0.0086,0.21301 -0.0086,0.27245 z"
     fill="#ffffff"
     id="path1"
     style="fill:#FFFFFFF" /></svg>
