<?xml version="1.0" encoding="UTF-8" standalone="no"?>
<!DOCTYPE svg PUBLIC "-//W3C//DTD SVG 1.1//EN" "http://www.w3.org/Graphics/SVG/1.1/DTD/svg11.dtd">
<!-- Created with Vectornator (http://vectornator.io/) -->
<svg height="100%" stroke-miterlimit="10" style="fill-rule:nonzero;clip-rule:evenodd;stroke-linecap:round;stroke-linejoin:round;" version="1.1" viewBox="558.094 448.688 87.375 81.125" width="100%" xml:space="preserve" xmlns="http://www.w3.org/2000/svg" xmlns:vectornator="http://vectornator.io" xmlns:xlink="http://www.w3.org/1999/xlink">
<defs/>
<clipPath id="ArtboardFrame">
<rect height="81.125" width="87.375" x="558.094" y="448.688"/>
</clipPath>
<g clip-path="url(#ArtboardFrame)" id="Layer" vectornator:layerName="Layer">
<path d="M612.062 448.688C611.953 448.688 611.852 448.711 611.75 448.75L591.156 460.656L563.281 476.719C562.993 476.873 562.789 477.173 562.781 477.5C562.778 477.839 563.001 478.148 563.312 478.281L591.219 494.406L591.219 528.969C591.219 529.427 591.604 529.812 592.062 529.812C592.172 529.812 592.273 529.789 592.375 529.75L592.375 516.969L594.25 515.875L594.25 517.719C594.7 516.816 595.103 516.129 595.469 515.625C596.094 514.767 596.8 514.086 597.594 513.625C598.493 513.103 599.202 512.962 599.75 513.156C600.059 513.269 600.341 513.516 600.594 513.938C601.015 512.994 601.525 512.198 602.094 511.531C602.663 510.864 603.29 510.318 604 509.906C605.518 509.026 606.546 509.082 607.094 510.031C607.389 510.542 607.562 511.346 607.562 512.5L607.562 521L611.469 518.75C611.242 518.729 611.006 518.758 610.812 518.656C610.148 518.306 609.812 517.573 609.812 516.469C609.812 515.258 610.159 514.139 610.812 513.094C611.466 512.049 612.314 511.114 613.375 510.344L616.406 508.156C616.842 507.839 617.134 507.474 617.281 507.031C617.366 506.787 617.406 506.459 617.406 506.094C617.406 505.346 617.179 504.945 616.719 504.875C616.258 504.805 615.576 505.034 614.719 505.531C613.728 506.106 613.04 506.798 612.625 507.656C612.393 508.132 612.226 508.754 612.156 509.469L610.406 510.5C610.441 508.871 610.882 507.477 611.75 506.344C612.618 505.211 613.636 504.321 614.781 503.656C616.109 502.886 617.171 502.552 618 502.656C618.822 502.764 619.25 503.422 619.25 504.656L619.25 512.188C619.25 512.415 619.294 512.565 619.375 512.656C619.456 512.747 619.615 512.713 619.875 512.562C619.959 512.514 620.051 512.448 620.156 512.375C620.262 512.302 620.381 512.219 620.5 512.125L620.5 513.531L622.438 512.406L623.719 511.656C623.377 511.659 623.014 511.721 622.781 511.562C622.082 511.087 621.705 510.209 621.656 508.938L623.469 507.875C623.525 508.573 623.677 509.042 623.938 509.281C624.415 509.711 625.257 509.591 626.438 508.906C627.14 508.499 627.747 507.944 628.281 507.281C628.815 506.618 629.094 505.927 629.094 505.188C629.094 504.627 628.866 504.325 628.438 504.281C628.163 504.261 627.652 504.361 626.844 504.594L625.312 505.031C624.35 505.313 623.644 505.42 623.188 505.344C622.372 505.224 621.969 504.642 621.969 503.594C621.969 502.359 622.356 501.147 623.125 499.938C623.894 498.728 624.919 497.723 626.219 496.969C627.919 495.982 629.154 495.845 629.906 496.562C630.377 497.021 630.608 497.678 630.594 498.531L628.812 499.594C628.777 499.119 628.611 498.751 628.344 498.5C627.908 498.176 627.169 498.314 626.094 498.938C625.377 499.353 624.806 499.813 624.438 500.344C624.069 500.875 623.906 501.418 623.906 501.938C623.906 502.506 624.14 502.815 624.625 502.875C624.906 502.915 625.327 502.851 625.875 502.688L627.125 502.312C628.488 501.904 629.411 501.755 629.875 501.844C630.613 501.976 630.969 502.642 630.969 503.844C630.969 505.005 630.575 506.213 629.812 507.5C629.556 507.933 629.191 508.329 628.844 508.719L635.469 504.906C634.927 504.927 634.419 504.846 633.969 504.562C632.992 503.947 632.5 502.566 632.5 500.438C632.5 498.342 633.016 496.378 634 494.5C634.984 492.622 636.256 491.202 637.844 490.281C638.645 489.817 639.436 489.595 640.188 489.594C640.939 489.592 641.513 489.819 641.906 490.281C642.286 490.719 642.53 491.352 642.656 492.156C642.769 492.692 642.812 493.59 642.812 494.906L634.531 499.719C634.566 501.022 634.838 501.931 635.344 502.438C635.85 502.944 636.658 502.897 637.719 502.281C638.71 501.707 639.504 500.848 640.094 499.75C640.431 499.116 640.641 498.471 640.781 497.812L642.656 496.75C642.607 497.258 642.434 497.875 642.156 498.625C641.879 499.375 641.594 500.052 641.25 500.625C640.831 501.34 640.251 501.893 639.688 502.469L645 499.406C645.292 499.265 645.467 498.98 645.469 498.656L645.469 468.281C645.47 467.9 645.211 467.572 644.844 467.469L622.281 454.469L612.375 448.75C612.276 448.711 612.169 448.688 612.062 448.688ZM639.281 491.75C638.847 491.738 638.327 491.929 637.719 492.281C636.847 492.787 636.122 493.556 635.531 494.625C634.941 495.694 634.629 496.796 634.594 497.938L640.875 494.312C640.798 493.407 640.625 492.749 640.344 492.344C640.084 491.967 639.715 491.762 639.281 491.75ZM558.094 500.031L558.094 511.625L559.781 512.594L559.781 505.938C559.781 505.115 560.013 504.523 560.469 504.156C560.925 503.789 561.557 503.851 562.406 504.344C562.506 504.402 562.603 504.444 562.688 504.5C562.772 504.556 562.869 504.639 562.969 504.719L562.969 502.656C562.788 502.53 562.669 502.426 562.594 502.375C562.519 502.324 562.469 502.299 562.438 502.281C561.769 501.894 561.168 501.831 560.656 502.094C560.144 502.356 559.819 502.655 559.688 502.969L559.688 500.969L558.094 500.031ZM566.688 505.188C566.116 505.147 565.625 505.297 565.188 505.625C564.313 506.28 563.875 507.544 563.875 509.406C563.875 511.297 564.32 513.009 565.188 514.562C566.055 516.116 567.095 517.276 568.344 518C568.856 518.297 569.313 518.505 569.719 518.625C570.474 518.861 571.113 518.812 571.625 518.531C571.931 518.377 572.222 518.13 572.469 517.75C572.715 517.37 572.863 516.963 572.906 516.562L571.219 515.594C571.094 516.034 570.893 516.378 570.594 516.594C570.069 516.961 569.38 516.886 568.5 516.375C567.557 515.828 566.856 515.065 566.406 514.094C565.957 513.122 565.719 512.038 565.688 510.844L573.031 515.125C573.031 513.956 572.975 513.061 572.875 512.469C572.763 511.624 572.556 510.811 572.219 510.031C571.869 509.215 571.356 508.43 570.688 507.656C570.019 506.883 569.337 506.288 568.625 505.875C567.92 505.466 567.259 505.228 566.688 505.188ZM567.438 507.125C567.762 507.152 568.113 507.275 568.5 507.5C569.58 508.126 570.35 509.044 570.812 510.25C571.062 510.9 571.244 511.678 571.312 512.562L565.719 509.344C565.75 508.366 566.038 507.686 566.562 507.344C566.825 507.173 567.113 507.098 567.438 507.125ZM617.344 508.875C617.112 509.18 616.803 509.487 616.438 509.812C616.072 510.138 615.726 510.435 615.375 510.688L614.219 511.531C613.53 512.036 613.032 512.51 612.688 512.938C612.104 513.658 611.812 514.413 611.812 515.25C611.812 515.884 612.006 516.273 612.406 516.406C612.807 516.539 613.264 516.443 613.812 516.125C614.48 515.738 615.124 515.189 615.75 514.469C616.804 513.264 617.344 512.005 617.344 510.656L617.344 508.875ZM575.094 509.906L575.094 521.5L576.781 522.469L576.781 516.406C576.781 515.649 576.822 515.078 576.906 514.719C576.99 514.36 577.188 514.063 577.469 513.844C577.818 513.57 578.225 513.485 578.688 513.594C578.943 513.648 579.257 513.799 579.656 514.031C580.443 514.488 580.982 515.167 581.281 516.062C581.462 516.601 581.562 517.23 581.562 517.938L581.562 525.25L583.281 526.219L583.281 518.781C583.281 517.612 583.15 516.662 582.875 515.875C582.376 514.438 581.392 513.294 579.969 512.469C579.319 512.092 578.749 511.887 578.219 511.875C577.688 511.863 577.162 512.066 576.688 512.469L576.688 510.812L575.094 509.906ZM605.031 511.812C604.655 511.706 604.197 511.811 603.656 512.125C602.911 512.557 602.256 513.205 601.719 514.094C601.181 514.982 600.906 516.12 600.906 517.469L600.906 524.844L605.594 522.156L605.594 513.281C605.594 512.412 605.407 511.919 605.031 511.812ZM586.094 513.031L586.094 516.281L584.75 515.5L584.75 517.094L586.094 517.875L586.094 525.531C586.094 526.275 586.25 526.965 586.531 527.594C586.812 528.222 587.338 528.762 588.125 529.219C588.369 529.36 588.603 529.501 588.812 529.594C589.022 529.686 589.213 529.734 589.406 529.781L589.406 528.25C589.281 528.192 589.187 528.144 589.094 528.094C589 528.043 588.894 527.985 588.812 527.938C588.507 527.76 588.287 527.593 588.156 527.438C587.919 527.163 587.812 526.842 587.812 526.438L587.812 518.844L589.406 519.781L589.406 518.188L587.812 517.281L587.812 514.031L586.094 513.031ZM617.438 513.75C617.051 514.559 616.505 515.368 615.781 516.219C615.741 516.266 615.697 516.297 615.656 516.344L618.094 514.906C617.979 514.863 617.835 514.855 617.75 514.75C617.595 514.555 617.501 514.233 617.438 513.75ZM598.094 515.562C597.825 515.566 597.487 515.678 597.094 515.906C596.377 516.322 595.712 517.018 595.125 518C594.538 518.982 594.25 520.318 594.25 522L594.25 528.688L598.969 525.969L598.969 517.656C598.969 516.771 598.901 516.175 598.719 515.875C598.575 515.654 598.363 515.559 598.094 515.562Z" fill="#000000" fill-rule="nonzero" opacity="1" stroke="none" vectornator:layerName="Curve 1"/>
</g>
</svg>
