<?xml version="1.0" encoding="utf-8"?><!-- Uploaded to: SVG Repo, www.svgrepo.com, Generator: SVG Repo Mixer Tools -->
<svg version="1.1" id="Uploaded to svgrepo.com" xmlns="http://www.w3.org/2000/svg" xmlns:xlink="http://www.w3.org/1999/xlink" 
	 width="800px" height="800px" viewBox="0 0 32 32" xml:space="preserve">
<style type="text/css">
	.sharpcorners_een{fill:#111918;}
</style>
<path class="sharpcorners_een" d="M11,8h-1V2H9v6H8V2H7v6H6V2H5v8c0,1.304,0.837,2.403,2,2.816V30h3V12.816
	c1.163-0.413,2-1.512,2-2.816V2h-1V8z M9,29H8v-1h1V29z M13,20h1v10h3V20V2C13,2,13,12,13,20z M16,29h-1v-1h1V29z M22.545,2h-0.09
	C19.995,2,18,3.995,18,6.455V9c0,1.862,1.278,3.412,3,3.859V30h3V12.859c1.722-0.446,3-1.997,3-3.859V6.455
	C27,3.995,25.005,2,22.545,2z M23,29h-1v-1h1V29z"/>
</svg>